<svg xmlns="http://www.w3.org/2000/svg" viewBox="0 0 376 408" role="img" aria-label="SNAB cluster map pin"><title>SNAB cluster map pin</title><path d="M38.25,169.0 L38.75,169.0 L39.0,167.0 L39.0,163.0 L39.25,161.0 L39.75,161.0 L40.5,155.75 L41.5,145.25 L42.25,140.0 L42.75,140.0 L43.5,137.5 L44.5,132.5 L45.5,129.5 L46.5,128.5 L47.5,125.0 L48.5,119.0 L49.25,116.0 L49.75,116.0 L50.25,115.0 L50.75,113.0 L52.0,111.25 L54.0,109.75 L55.75,106.75 L57.25,102.25 L59.25,98.75 L61.75,96.25 L63.0,94.5 L63.0,93.5 L63.25,93.0 L63.75,93.0 L64.25,92.0 L64.75,90.0 L65.5,88.75 L66.5,88.25 L67.0,87.5 L67.0,86.5 L71.0,82.0 L79.0,74.0 L83.0,69.5 L83.0,68.5 L83.5,67.5 L84.5,66.5 L85.5,66.0 L86.5,66.0 L87.5,65.25 L88.5,63.75 L89.5,63.0 L90.5,63.0 L92.5,61.5 L95.5,58.5 L98.0,56.75 L100.0,56.25 L102.0,54.75 L104.0,52.25 L105.5,51.0 L106.5,51.0 L107.25,50.5 L107.75,49.5 L109.25,48.75 L111.75,48.25 L113.25,47.5 L113.75,46.5 L115.0,45.75 L117.0,45.25 L118.75,44.25 L120.25,42.75 L124.25,41.25 L130.75,39.75 L134.0,38.75 L134.0,38.25 L134.5,38.0 L135.5,38.0 L136.5,37.5 L137.5,36.5 L138.75,36.0 L140.25,36.0 L141.0,35.75 L141.0,35.25 L141.75,35.0 L143.25,35.0 L144.0,34.75 L144.0,34.25 L146.25,33.75 L150.75,33.25 L153.0,32.75 L153.0,32.25 L154.0,32.0 L156.0,32.0 L157.0,31.75 L157.0,31.25 L158.0,31.0 L160.0,31.0 L161.0,30.75 L161.0,30.25 L162.0,30.0 L164.0,30.0 L165.0,29.75 L165.0,29.25 L166.0,29.0 L168.0,29.0 L169.0,28.75 L169.0,28.25 L172.75,27.75 L180.25,27.25 L184.0,26.75 L184.0,26.25 L187.25,26.0 L193.75,26.0 L197.0,26.25 L197.0,26.75 L198.75,27.0 L202.25,27.0 L204.0,27.25 L204.0,27.75 L205.0,28.0 L207.0,28.0 L208.0,28.25 L208.0,28.75 L209.0,29.0 L211.0,29.0 L212.0,29.25 L212.0,29.75 L213.0,30.0 L215.0,30.0 L216.0,30.25 L216.0,30.75 L217.0,31.0 L219.0,31.0 L220.0,31.25 L220.0,31.75 L221.0,32.0 L223.0,32.0 L224.0,32.25 L224.0,32.75 L225.5,33.0 L228.5,33.0 L230.0,33.25 L230.0,33.75 L232.0,34.25 L236.0,34.75 L239.0,35.75 L241.0,37.25 L246.25,39.0 L254.75,41.0 L260.25,43.25 L262.75,45.75 L265.5,47.5 L268.5,48.5 L271.5,50.5 L274.5,53.5 L276.5,55.0 L277.5,55.0 L278.25,55.5 L278.75,56.5 L280.0,57.25 L282.0,57.75 L283.75,59.0 L285.25,61.0 L287.25,62.5 L289.75,63.5 L292.0,65.0 L294.0,67.0 L295.0,68.5 L295.0,69.5 L295.5,70.5 L296.5,71.5 L297.5,72.0 L298.5,72.0 L301.75,74.75 L307.25,80.25 L310.5,84.5 L311.5,87.5 L312.5,89.25 L313.5,89.75 L314.0,90.5 L314.0,91.5 L315.25,93.25 L317.75,95.75 L319.5,98.5 L320.5,101.5 L322.25,104.0 L324.75,106.0 L326.75,109.75 L328.25,115.25 L329.25,118.0 L329.75,118.0 L330.0,118.75 L330.0,120.25 L330.25,121.0 L330.75,121.0 L331.0,121.5 L331.0,122.5 L331.5,123.5 L332.5,124.5 L333.0,125.75 L333.0,127.25 L333.25,128.0 L333.75,128.0 L334.5,131.25 L335.5,137.75 L336.25,141.0 L336.75,141.0 L337.0,141.75 L337.0,143.25 L337.25,144.0 L337.75,144.0 L338.0,144.75 L338.0,146.25 L338.25,147.0 L338.75,147.0 L339.0,147.75 L339.0,149.25 L339.25,150.0 L339.75,150.0 L340.0,150.75 L340.0,152.25 L340.25,153.0 L340.75,153.0 L341.0,154.5 L341.0,157.5 L341.25,159.0 L341.75,159.0 L342.0,167.25 L342.0,183.75 L341.75,192.0 L341.25,192.0 L340.75,194.75 L340.25,200.25 L339.75,203.0 L339.25,203.0 L338.5,205.5 L337.5,210.5 L336.75,213.0 L336.25,213.0 L336.0,214.0 L336.0,216.0 L335.75,217.0 L335.25,217.0 L334.75,219.5 L334.25,224.5 L333.75,227.0 L333.25,227.0 L333.0,227.75 L333.0,229.25 L332.75,230.0 L332.25,230.0 L332.0,230.5 L332.0,231.5 L331.25,233.0 L329.75,235.0 L328.5,238.5 L327.5,243.5 L325.5,247.5 L322.5,250.5 L320.5,253.5 L319.5,256.5 L317.75,259.25 L315.25,261.75 L314.0,263.5 L314.0,264.5 L312.75,266.25 L310.25,268.75 L309.0,270.5 L309.0,271.5 L308.0,272.75 L306.0,274.25 L305.0,275.5 L305.0,276.5 L302.75,279.25 L298.25,283.75 L295.5,286.0 L294.5,286.0 L292.5,287.5 L289.5,290.5 L288.0,292.5 L288.0,293.5 L287.25,294.25 L285.75,294.75 L283.25,297.0 L279.75,301.0 L277.0,303.25 L275.0,303.75 L272.75,305.25 L270.25,307.75 L267.25,309.75 L263.75,311.25 L261.0,313.25 L259.0,315.75 L257.5,317.0 L256.5,317.0 L255.75,317.5 L255.25,318.5 L253.75,319.5 L251.25,320.5 L249.25,322.0 L247.75,324.0 L245.25,325.75 L241.75,327.25 L238.25,329.75 L234.75,333.25 L232.5,335.0 L231.5,335.0 L229.5,336.75 L226.5,340.25 L224.5,342.0 L223.5,342.0 L222.75,342.5 L222.25,343.5 L221.0,344.25 L219.0,344.75 L217.25,346.0 L215.75,348.0 L213.25,349.75 L209.75,351.25 L206.5,353.75 L203.5,357.25 L200.75,359.5 L198.25,360.5 L196.5,361.75 L195.5,363.25 L193.5,364.25 L190.5,364.75 L187.75,363.75 L185.25,361.25 L183.0,359.75 L181.0,359.25 L178.5,357.25 L175.5,353.75 L172.25,351.25 L168.75,349.75 L165.75,347.75 L163.25,345.25 L160.75,343.75 L158.25,343.25 L156.75,342.5 L156.25,341.5 L155.5,341.0 L154.5,341.0 L152.75,339.5 L150.25,336.5 L147.75,334.5 L145.25,333.5 L143.25,332.0 L141.75,330.0 L139.0,328.25 L135.0,326.75 L131.5,324.5 L128.5,321.5 L126.0,319.75 L124.0,319.25 L121.5,317.25 L118.5,313.75 L115.5,311.5 L112.5,310.5 L110.25,309.0 L108.75,307.0 L106.25,305.25 L102.75,303.75 L95.5,297.5 L84.5,286.5 L78.5,281.0 L77.5,281.0 L75.75,279.75 L73.25,277.25 L71.75,275.0 L71.25,273.0 L69.75,271.0 L67.25,269.0 L65.25,266.0 L63.75,262.0 L61.75,258.75 L59.25,256.25 L57.5,253.25 L56.5,249.75 L54.5,246.5 L51.5,243.5 L50.0,241.25 L50.0,239.75 L49.75,239.0 L49.25,239.0 L49.0,238.25 L49.0,236.75 L48.75,236.0 L48.25,236.0 L47.75,234.0 L47.25,230.0 L46.75,228.0 L46.25,228.0 L46.0,227.25 L46.0,225.75 L45.5,224.5 L44.5,223.5 L43.75,221.25 L43.25,217.75 L42.75,216.0 L42.25,216.0 L41.75,212.25 L41.25,204.75 L40.75,201.0 L40.25,201.0 L39.75,197.25 L39.25,189.75 L38.75,186.0 L38.25,186.0 L38.0,181.75 L38.0,173.25Z" fill="#244D61" fill-rule="evenodd"/><path d="M147.25,205.0 L147.75,205.0 L148.0,204.0 L148.0,202.0 L148.25,201.0 L148.75,201.0 L149.0,200.25 L149.0,198.75 L149.25,198.0 L149.75,198.0 L150.0,197.25 L150.0,195.75 L150.25,195.0 L150.75,195.0 L151.25,194.0 L151.75,192.0 L153.0,190.0 L155.0,188.0 L156.5,187.0 L157.5,187.0 L159.0,185.75 L161.0,183.25 L162.0,181.0 L162.0,179.0 L161.0,177.25 L159.0,175.75 L158.0,174.5 L158.0,173.5 L156.25,171.25 L152.75,167.75 L150.75,161.25 L150.25,151.75 L150.25,147.0 L150.75,147.0 L151.0,146.25 L151.0,144.75 L151.25,144.0 L151.75,144.0 L152.25,143.0 L152.75,141.0 L155.25,138.0 L159.75,134.0 L162.25,131.25 L162.75,129.75 L163.5,129.0 L164.5,129.0 L165.25,128.5 L165.75,127.5 L166.5,127.0 L167.5,127.0 L169.0,126.25 L171.0,124.75 L172.75,124.0 L174.25,124.0 L175.0,123.75 L175.0,123.25 L176.5,122.75 L179.5,122.25 L181.0,121.75 L181.0,121.25 L185.75,121.0 L195.25,121.0 L200.0,121.25 L200.0,121.75 L200.75,122.0 L202.25,122.0 L203.0,122.25 L203.0,122.75 L203.75,123.0 L205.25,123.0 L207.0,123.75 L209.0,125.25 L211.25,126.25 L213.75,126.75 L215.75,127.75 L217.25,129.25 L218.0,130.5 L218.0,131.5 L218.75,132.25 L220.25,132.75 L222.5,134.5 L225.5,137.5 L227.25,140.0 L227.75,142.0 L228.75,143.75 L230.25,145.25 L231.0,147.0 L231.0,149.0 L231.25,150.0 L231.75,150.0 L231.75,153.0 L231.25,159.0 L230.75,162.0 L230.25,162.0 L229.5,163.5 L228.5,166.5 L227.5,168.25 L226.5,168.75 L226.0,169.75 L226.0,171.25 L225.5,172.25 L224.5,172.75 L224.0,173.5 L224.0,174.5 L223.25,175.25 L221.75,175.75 L220.25,176.75 L218.75,178.25 L218.0,179.75 L218.0,181.25 L218.5,182.5 L219.5,183.5 L220.5,184.0 L221.5,184.0 L222.25,184.5 L222.75,185.5 L223.5,186.0 L224.5,186.0 L225.25,186.75 L225.75,188.25 L227.25,190.0 L229.75,192.0 L231.25,194.25 L231.75,196.75 L232.25,198.0 L232.75,198.0 L233.25,201.25 L233.75,207.75 L233.75,211.0 L233.25,211.0 L233.0,213.5 L233.0,218.5 L232.75,221.0 L232.25,221.0 L232.0,221.75 L232.0,223.25 L231.75,224.0 L231.25,224.0 L230.75,225.0 L230.25,227.0 L227.0,231.0 L221.0,237.0 L217.5,240.0 L216.5,240.0 L215.5,240.5 L214.5,241.5 L213.25,242.0 L211.75,242.0 L211.0,242.25 L211.0,242.75 L210.25,243.0 L208.75,243.0 L208.0,243.25 L208.0,243.75 L207.25,244.0 L205.75,244.0 L205.0,244.25 L205.0,244.75 L204.25,245.0 L202.75,245.0 L202.0,245.25 L202.0,245.75 L200.0,246.0 L196.0,246.0 L194.0,246.25 L194.0,246.75 L190.25,246.75 L182.75,246.25 L179.0,245.75 L179.0,245.25 L177.5,244.75 L174.5,244.25 L172.5,243.5 L171.5,242.5 L170.0,242.0 L168.0,242.0 L167.0,241.75 L167.0,241.25 L166.0,240.75 L164.0,240.25 L162.25,239.25 L160.75,237.75 L160.0,236.5 L160.0,235.5 L158.0,233.5 L154.0,230.5 L152.0,228.5 L152.0,227.5 L151.5,226.5 L150.5,225.5 L149.75,223.25 L149.25,219.75 L148.75,218.0 L148.25,218.0 L147.75,214.75 L147.25,208.25Z M174.0,207.5 L174.0,210.5 L174.25,212.0 L174.75,212.0 L175.5,213.5 L176.5,216.5 L178.0,219.0 L180.0,221.0 L182.0,222.0 L184.0,222.0 L185.0,222.25 L185.0,222.75 L188.75,222.75 L196.25,222.25 L201.25,221.0 L203.75,219.0 L205.0,217.5 L205.0,216.5 L205.5,215.5 L206.5,214.5 L207.0,211.5 L207.0,206.5 L206.75,204.0 L206.25,204.0 L206.0,203.5 L206.0,202.5 L203.5,199.75 L198.5,195.25 L193.0,193.0 L187.0,193.0 L184.0,193.25 L184.0,193.75 L183.0,194.25 L181.0,194.75 L179.75,195.75 L179.25,197.25 L178.5,198.25 L177.5,198.75 L176.75,200.0 L176.25,202.0 L175.75,203.0 L175.25,203.0 L175.0,203.75 L175.0,205.25 L174.75,206.0 L174.25,206.0Z M177.25,155.5 L177.75,160.5 L178.5,163.5 L179.5,164.5 L181.5,165.5 L184.5,166.5 L186.0,167.25 L186.0,167.75 L186.75,168.0 L188.25,168.0 L189.0,168.25 L189.0,168.75 L190.5,169.0 L193.5,169.0 L195.0,168.75 L195.0,168.25 L196.0,167.75 L198.0,167.25 L200.5,165.25 L203.5,161.75 L204.75,158.0 L204.25,154.0 L202.25,150.25 L198.75,146.75 L196.25,145.0 L194.75,145.0 L194.0,144.75 L194.0,144.25 L192.75,144.0 L190.25,144.0 L189.0,144.25 L189.0,144.75 L187.0,145.5 L183.0,146.5 L180.25,147.75 L178.75,149.25 L178.0,150.75 L178.0,152.25 L177.75,153.0 L177.25,153.0Z" fill="#F7F3E8" fill-rule="evenodd"/></svg>