<svg xmlns="http://www.w3.org/2000/svg" viewBox="0 0 352 456" role="img" aria-label="SNAB furniture map pin"><title>SNAB furniture map pin</title><path d="M36.25,151.0 L36.75,151.0 L37.5,147.75 L38.5,141.25 L39.25,138.0 L39.75,138.0 L40.25,134.75 L40.75,128.25 L41.25,125.0 L41.75,125.0 L42.0,124.0 L42.0,122.0 L42.25,121.0 L42.75,121.0 L43.5,118.75 L44.5,114.25 L45.5,111.5 L46.5,110.5 L47.25,108.0 L47.75,104.0 L48.25,102.0 L48.75,102.0 L49.25,101.0 L49.75,99.0 L51.5,96.5 L54.5,93.5 L56.5,90.5 L57.5,87.5 L59.25,84.75 L61.75,82.25 L63.5,79.75 L64.5,77.25 L70.75,70.25 L82.25,58.75 L88.0,52.5 L88.0,51.5 L88.5,50.5 L89.5,49.5 L91.75,48.25 L95.25,46.75 L97.75,45.0 L99.25,43.0 L100.5,42.0 L101.5,42.0 L102.5,41.5 L103.5,40.5 L104.75,40.0 L106.25,40.0 L108.25,38.75 L110.75,36.25 L112.5,35.0 L113.5,35.0 L114.5,34.5 L115.5,33.5 L116.75,33.0 L118.25,33.0 L119.5,32.5 L120.5,31.5 L121.75,31.0 L123.25,31.0 L124.25,30.5 L124.75,29.5 L125.5,29.0 L126.5,29.0 L128.0,28.25 L130.0,26.75 L131.75,26.0 L133.25,26.0 L134.0,25.75 L134.0,25.25 L138.75,24.5 L148.25,23.5 L153.0,22.75 L153.0,22.25 L156.5,21.5 L163.5,20.5 L167.0,19.75 L167.0,19.25 L174.5,19.0 L189.5,19.0 L197.0,19.25 L197.0,19.75 L198.25,20.0 L200.75,20.0 L202.0,20.25 L202.0,20.75 L203.0,21.0 L205.0,21.0 L206.0,21.25 L206.0,21.75 L210.5,22.5 L219.5,23.5 L224.0,24.25 L224.0,24.75 L225.75,25.25 L229.25,25.75 L231.0,26.25 L231.0,26.75 L232.0,27.25 L234.0,27.75 L235.25,28.5 L235.75,29.5 L236.5,30.0 L237.5,30.0 L238.5,30.5 L239.5,31.5 L242.0,32.5 L246.0,33.5 L248.25,34.5 L248.75,35.5 L249.5,36.0 L250.5,36.0 L252.0,37.0 L254.0,39.0 L255.75,40.0 L257.25,40.0 L258.0,40.25 L258.0,40.75 L259.0,41.25 L261.0,41.75 L263.25,43.25 L265.75,45.75 L267.5,47.0 L268.5,47.0 L269.5,47.75 L270.5,49.25 L271.5,50.0 L272.5,50.0 L278.0,55.0 L288.0,65.0 L293.0,70.5 L293.0,71.5 L293.5,72.25 L294.5,72.75 L295.5,74.25 L296.5,76.75 L298.25,78.75 L300.75,80.25 L302.75,82.75 L304.25,86.25 L306.0,89.0 L308.0,91.0 L309.0,92.5 L309.0,93.5 L309.5,94.5 L310.5,95.5 L311.5,98.5 L312.5,103.5 L313.5,106.25 L314.5,106.75 L315.0,107.5 L315.0,108.5 L315.75,110.0 L317.25,112.0 L318.5,115.75 L319.5,121.25 L320.25,124.0 L320.75,124.0 L321.0,124.75 L321.0,126.25 L321.25,127.0 L321.75,127.0 L322.5,129.0 L323.5,133.0 L324.25,135.0 L324.75,135.0 L325.25,139.0 L325.75,147.0 L326.25,151.0 L326.75,151.0 L327.0,155.75 L327.0,165.25 L326.75,170.0 L326.25,170.0 L325.75,173.25 L325.25,179.75 L324.75,183.0 L324.25,183.0 L323.75,185.0 L323.25,189.0 L322.75,191.0 L322.25,191.0 L321.75,192.75 L321.25,196.25 L320.75,198.0 L320.25,198.0 L320.0,198.75 L320.0,200.25 L319.75,201.0 L319.25,201.0 L318.75,203.25 L318.25,207.75 L317.75,210.0 L317.25,210.0 L317.0,210.75 L317.0,212.25 L316.75,213.0 L316.25,213.0 L316.0,213.5 L316.0,214.5 L315.25,216.0 L313.75,218.0 L312.5,221.5 L311.5,226.5 L310.75,229.0 L310.25,229.0 L309.5,230.5 L308.5,233.5 L307.5,235.25 L306.5,235.75 L305.0,238.5 L303.0,243.5 L300.5,247.25 L297.5,249.75 L295.25,252.75 L293.75,256.25 L292.0,258.75 L290.0,260.25 L288.5,262.5 L287.5,265.5 L285.5,268.25 L282.5,270.75 L280.5,273.5 L279.5,276.5 L277.5,279.25 L274.5,281.75 L272.25,285.0 L270.75,289.0 L268.75,292.25 L266.25,294.75 L264.75,297.25 L264.25,299.75 L263.5,301.25 L262.5,301.75 L262.0,302.5 L262.0,303.5 L260.5,305.0 L257.5,307.0 L255.75,309.0 L255.25,311.0 L254.5,312.25 L253.5,312.75 L253.0,313.5 L253.0,314.5 L251.75,316.25 L249.25,318.75 L247.5,321.5 L246.5,324.5 L244.75,327.0 L242.25,329.0 L240.5,331.5 L239.5,334.5 L237.25,337.75 L233.75,341.25 L231.5,344.5 L230.5,347.5 L228.75,350.25 L226.25,352.75 L224.5,355.5 L223.5,358.5 L221.0,362.0 L217.0,366.0 L214.5,369.25 L213.5,371.75 L212.0,373.75 L210.0,375.25 L208.5,377.5 L207.5,380.5 L205.75,383.25 L203.25,385.75 L201.25,388.75 L199.75,392.25 L197.25,395.5 L193.75,398.5 L191.5,401.5 L190.5,404.5 L189.5,406.25 L188.5,406.75 L188.0,407.5 L188.0,408.5 L187.25,409.5 L185.75,410.5 L184.75,411.75 L184.25,413.25 L182.75,414.25 L180.25,414.75 L178.0,414.0 L176.0,412.0 L175.0,410.5 L175.0,409.5 L173.75,408.0 L171.25,406.0 L169.25,402.75 L167.75,398.25 L165.75,395.0 L163.25,393.0 L161.5,390.5 L160.5,387.5 L159.25,385.25 L157.75,383.75 L156.25,382.75 L154.75,382.25 L153.0,379.5 L151.0,374.5 L149.0,371.25 L147.0,369.75 L145.75,367.75 L145.25,365.25 L144.5,363.75 L143.5,363.25 L143.0,362.5 L143.0,361.5 L141.75,360.0 L139.25,358.0 L137.5,355.75 L136.5,353.25 L134.75,351.0 L132.25,349.0 L130.0,345.5 L128.0,340.5 L126.0,337.25 L124.0,335.75 L122.75,334.0 L122.25,332.0 L120.0,329.25 L116.0,325.75 L113.25,322.0 L111.75,318.0 L109.75,314.75 L107.25,312.25 L105.5,309.5 L104.5,306.5 L102.5,303.5 L99.5,300.5 L97.5,297.5 L96.5,294.5 L94.25,291.25 L90.75,287.75 L88.5,284.5 L87.5,281.5 L86.25,279.5 L84.75,278.5 L84.0,277.5 L84.0,276.5 L83.5,275.75 L82.5,275.25 L81.25,273.25 L79.75,269.75 L77.5,266.75 L74.5,264.25 L72.75,262.0 L72.25,260.0 L70.5,257.5 L67.5,254.5 L66.0,252.5 L66.0,251.5 L65.75,251.0 L65.25,251.0 L64.75,250.0 L64.25,248.0 L63.5,246.75 L62.5,246.25 L62.0,245.5 L62.0,244.5 L61.25,243.5 L59.75,242.5 L58.25,240.0 L56.75,236.0 L54.5,232.5 L51.5,229.5 L49.5,226.0 L48.5,222.0 L47.75,220.0 L47.25,220.0 L47.0,219.0 L47.0,217.0 L46.75,216.0 L46.25,216.0 L45.75,214.75 L45.25,212.25 L44.5,210.5 L43.5,209.5 L42.75,206.75 L42.25,202.25 L41.75,200.0 L41.25,200.0 L41.0,198.25 L41.0,194.75 L40.75,193.0 L40.25,193.0 L39.75,190.5 L39.25,185.5 L38.75,183.0 L38.25,183.0 L37.75,180.75 L37.25,176.25 L36.75,174.0 L36.25,174.0 L36.0,168.25 L36.0,156.75Z" fill="#244D61" fill-rule="evenodd"/><path d="M111.25,217.0 L111.75,217.0 L112.5,215.75 L113.5,213.25 L114.5,212.0 L115.5,212.0 L116.5,211.5 L117.5,210.5 L118.75,210.0 L120.25,210.0 L121.0,209.75 L121.0,209.25 L122.5,209.0 L125.5,209.0 L127.0,208.75 L127.0,208.25 L129.75,208.0 L135.25,208.0 L138.0,208.25 L138.0,208.75 L145.0,208.75 L159.0,208.25 L166.0,208.25 L166.0,208.75 L167.25,209.0 L169.75,209.0 L171.5,208.5 L172.5,207.5 L173.0,205.25 L173.0,201.75 L171.5,198.75 L168.5,196.25 L167.0,194.5 L167.0,193.5 L166.5,192.5 L165.5,191.5 L165.0,188.5 L165.0,183.5 L165.25,181.0 L165.75,181.0 L166.25,180.25 L166.75,178.75 L167.5,178.0 L168.5,178.0 L169.25,177.5 L169.75,176.5 L170.75,175.75 L172.25,175.25 L173.25,173.25 L173.75,169.75 L173.5,167.5 L172.5,166.5 L169.75,166.0 L165.25,166.0 L163.0,166.25 L163.0,166.75 L156.75,166.75 L144.25,166.25 L138.0,165.75 L138.0,165.25 L137.25,165.0 L135.75,165.0 L134.0,164.25 L132.0,162.75 L131.0,160.0 L131.0,156.0 L131.5,153.75 L132.5,153.25 L133.0,152.5 L133.0,151.5 L133.25,151.0 L133.75,151.0 L134.0,150.5 L134.0,149.5 L134.75,148.0 L136.25,146.0 L137.0,144.25 L137.0,142.75 L137.25,142.0 L137.75,142.0 L138.0,141.5 L138.0,140.5 L138.25,140.0 L138.75,140.0 L139.0,139.5 L139.0,138.5 L139.75,137.0 L141.25,135.0 L142.5,130.75 L143.5,124.25 L144.25,121.0 L144.75,121.0 L145.25,119.75 L145.75,117.25 L146.75,115.0 L148.25,113.0 L149.75,109.0 L151.25,103.0 L153.75,98.25 L157.25,94.75 L159.25,92.25 L159.75,90.75 L160.5,90.0 L161.5,90.0 L162.0,89.75 L162.0,89.25 L172.0,89.0 L192.0,89.0 L202.0,89.25 L202.0,89.75 L203.0,90.25 L205.0,90.75 L206.5,92.25 L207.5,94.75 L208.25,96.0 L208.75,96.0 L209.5,98.25 L210.5,102.75 L211.25,105.0 L211.75,105.0 L212.0,105.5 L212.0,106.5 L212.75,108.0 L214.25,110.0 L215.75,114.5 L217.25,121.5 L219.5,127.0 L222.5,131.0 L224.75,136.75 L226.25,144.25 L227.5,148.25 L228.5,148.75 L229.0,149.5 L229.0,150.5 L229.5,151.5 L230.5,152.5 L231.0,155.25 L231.0,159.75 L229.75,163.0 L227.25,165.0 L217.75,166.0 L201.25,166.0 L192.0,166.75 L190.0,168.25 L189.0,170.0 L189.0,172.0 L189.75,173.75 L191.25,175.25 L193.0,176.25 L195.0,176.75 L197.0,178.0 L199.0,180.0 L200.0,183.5 L200.0,188.5 L197.75,192.75 L193.25,196.25 L191.0,199.75 L191.0,203.25 L192.0,205.75 L194.0,207.25 L207.5,208.0 L232.5,208.0 L245.0,208.25 L245.0,208.75 L245.75,209.0 L247.25,209.0 L248.25,209.5 L248.75,210.5 L249.5,211.0 L250.5,211.0 L251.25,211.75 L251.75,213.25 L252.25,214.0 L252.75,214.0 L253.0,216.0 L253.0,220.0 L252.25,222.75 L250.75,224.25 L248.0,225.5 L244.0,226.5 L241.25,228.0 L239.75,230.0 L239.0,233.5 L239.0,238.5 L239.25,241.0 L239.75,241.0 L239.75,243.25 L239.25,247.75 L238.25,250.75 L236.75,252.25 L234.75,253.0 L232.25,253.0 L231.0,252.75 L231.0,252.25 L229.75,251.5 L227.25,250.5 L226.0,249.5 L226.0,248.5 L225.5,247.5 L224.5,246.5 L223.75,242.25 L223.25,234.75 L222.25,230.25 L220.75,228.75 L218.25,228.0 L214.75,228.0 L213.0,228.25 L213.0,228.75 L195.5,229.0 L160.5,229.0 L142.0,230.25 L140.0,232.75 L138.75,237.25 L138.25,243.75 L137.75,247.0 L137.25,247.0 L136.75,248.0 L136.25,250.0 L135.75,251.25 L135.25,251.75 L133.0,252.0 L129.0,252.0 L126.25,251.25 L124.75,249.75 L124.25,244.25 L124.75,234.75 L124.25,229.25 L122.75,227.75 L120.0,226.75 L116.0,226.25 L113.25,225.0 L111.75,223.0 L111.0,220.75 L111.0,218.25Z" fill="#F7F3E8" fill-rule="evenodd"/><path d="M256.5,297.5 L257.5,296.5 L258.5,296.25 L259.5,296.75 L259.75,297.75 L259.25,299.25 L258.25,300.0 L256.75,300.0 L256.0,299.5 L256.0,298.5Z" fill="#F7F3E8" fill-rule="evenodd"/></svg>